<svg width="883" height="712" viewBox="0 0 883 712" fill="none" xmlns="http://www.w3.org/2000/svg">
<g clip-path="url(#clip0)">
<path d="M55.6945 139.07H236.635C242.135 139.07 246.594 143.529 246.594 149.03V150.8C246.594 156.301 242.135 160.76 236.635 160.76H55.6945C50.1938 160.76 45.7345 156.301 45.7345 150.8V149.03C45.7345 143.529 50.1938 139.07 55.6945 139.07Z" fill="#D6D6D6"/>
<path d="M10.7045 157.55H191.645C197.145 157.55 201.604 162.009 201.604 167.51V169.28C201.604 174.781 197.145 179.24 191.645 179.24H10.7045C5.20377 179.24 0.744507 174.781 0.744507 169.28V167.51C0.744507 162.009 5.20377 157.55 10.7045 157.55Z" fill="#D6D6D6"/>
<path d="M87.0345 177.62H267.975C273.475 177.62 277.935 182.079 277.935 187.58V189.35C277.935 194.851 273.475 199.31 267.975 199.31H87.0345C81.5338 199.31 77.0746 194.851 77.0746 189.35V187.58C77.0746 182.079 81.5338 177.62 87.0345 177.62Z" fill="#D6D6D6"/>
<path d="M399.64 387.34H580.58C586.081 387.34 590.54 391.799 590.54 397.3V399.07C590.54 404.571 586.081 409.03 580.58 409.03H399.64C394.139 409.03 389.68 404.571 389.68 399.07V397.3C389.68 391.799 394.139 387.34 399.64 387.34Z" fill="#D6D6D6"/>
<path d="M354.65 405.82H535.59C541.091 405.82 545.55 410.279 545.55 415.78V417.55C545.55 423.051 541.091 427.51 535.59 427.51H354.65C349.149 427.51 344.69 423.051 344.69 417.55V415.78C344.69 410.279 349.149 405.82 354.65 405.82Z" fill="#D6D6D6"/>
<path d="M430.98 421.88H611.92C617.421 421.88 621.88 426.339 621.88 431.84V433.61C621.88 439.111 617.421 443.57 611.92 443.57H430.98C425.479 443.57 421.02 439.111 421.02 433.61V431.84C421.02 426.339 425.479 421.88 430.98 421.88Z" fill="#D6D6D6"/>
<g opacity="0.5">
<path opacity="0.5" d="M852.515 686.15C847.695 686.15 736.815 734.36 608.265 607.41C538.455 538.48 470.075 531.14 422.155 538.83C392.705 543.55 365.815 557.93 344.515 578.76C327.385 595.58 285.925 618.5 188.785 612.24C39.3446 602.6 -0.0253906 709.46 -0.0253906 709.46H882.975C882.975 709.46 857.305 686.15 852.515 686.15Z" fill="#D6D6D6"/>
</g>
<path d="M0.0146484 711.86C0.0146484 711.86 39.3846 605 188.825 614.64C285.965 620.93 327.435 597.98 344.515 581.17C365.775 560.3 392.655 545.96 422.075 541.24C469.995 533.55 538.385 540.89 608.185 609.82C736.735 736.77 847.615 688.56 852.435 688.56C857.255 688.56 882.965 711.86 882.965 711.86H0.0146484Z" fill="#D6D6D6"/>
<path opacity="0.02" d="M0.0146484 711.86C0.0146484 711.86 39.3846 605 188.825 614.64C285.965 620.93 327.435 597.98 344.515 581.17C365.775 560.3 392.655 545.96 422.075 541.24C469.995 533.55 538.385 540.89 608.185 609.82C736.735 736.77 847.615 688.56 852.435 688.56C857.255 688.56 882.965 711.86 882.965 711.86H0.0146484Z" fill="#D6D6D6"/>
<path d="M493.96 237.89H674.9C680.401 237.89 684.86 242.349 684.86 247.85V249.62C684.86 255.121 680.401 259.58 674.9 259.58H493.96C488.459 259.58 484 255.121 484 249.62V247.85C484 242.349 488.459 237.89 493.96 237.89Z" fill="#D6D6D6"/>
<path d="M448.96 256.37H629.9C635.401 256.37 639.86 260.829 639.86 266.33V268.1C639.86 273.601 635.401 278.06 629.9 278.06H448.96C443.459 278.06 439 273.601 439 268.1V266.33C439 260.829 443.459 256.37 448.96 256.37Z" fill="#D6D6D6"/>
<path d="M525.29 272.44H706.23C711.731 272.44 716.19 276.899 716.19 282.4V284.17C716.19 289.671 711.731 294.13 706.23 294.13H525.29C519.789 294.13 515.33 289.671 515.33 284.17V282.4C515.33 276.899 519.789 272.44 525.29 272.44Z" fill="#D6D6D6"/>
<path d="M577.19 267.62C537.254 267.62 504.88 235.246 504.88 195.31C504.88 155.374 537.254 123 577.19 123C617.126 123 649.5 155.374 649.5 195.31C649.5 235.246 617.126 267.62 577.19 267.62Z" fill="#FCCC63"/>
<path d="M167.165 593.855H104.265V640.585H167.165V593.855Z" fill="#845EC2"/>
<path d="M98.7848 591.955L133.935 556.805C134.189 556.55 134.492 556.347 134.825 556.209C135.157 556.071 135.514 556 135.875 556C136.235 556 136.592 556.071 136.925 556.209C137.258 556.347 137.56 556.55 137.815 556.805L172.685 591.675C173.068 592.058 173.33 592.545 173.436 593.077C173.543 593.608 173.489 594.159 173.283 594.66C173.076 595.161 172.726 595.589 172.276 595.891C171.826 596.192 171.297 596.354 170.755 596.355L100.755 596.635C100.21 596.642 99.6747 596.486 99.2185 596.188C98.7623 595.889 98.4057 595.461 98.1941 594.958C97.9826 594.456 97.9258 593.902 98.031 593.367C98.1362 592.832 98.3987 592.34 98.7848 591.955V591.955Z" fill="#845EC2"/>
<path opacity="0.05" d="M98.7845 591.955L133.935 556.805C134.189 556.55 134.491 556.347 134.824 556.209C135.157 556.071 135.514 556 135.875 556C136.235 556 136.592 556.071 136.925 556.209C137.258 556.347 137.56 556.55 137.815 556.805L172.685 591.675C173.068 592.058 173.33 592.545 173.436 593.077C173.543 593.608 173.489 594.159 173.283 594.66C173.076 595.161 172.726 595.589 172.276 595.891C171.826 596.192 171.296 596.354 170.755 596.355L100.755 596.635C100.209 596.642 99.6744 596.486 99.2183 596.188C98.7621 595.889 98.4054 595.461 98.1939 594.958C97.9823 594.456 97.9255 593.902 98.0308 593.367C98.136 592.832 98.3984 592.34 98.7845 591.955V591.955Z" fill="black"/>
<path d="M134.905 619.505H136.165C138.048 619.505 139.854 620.253 141.186 621.585C142.517 622.916 143.265 624.722 143.265 626.605V640.605H127.805V626.605C127.805 624.722 128.553 622.916 129.885 621.585C131.216 620.253 133.022 619.505 134.905 619.505V619.505Z" fill="white"/>
<path d="M135.884 569.265C138.022 569.265 139.754 567.532 139.754 565.395C139.754 563.258 138.022 561.525 135.884 561.525C133.747 561.525 132.014 563.258 132.014 565.395C132.014 567.532 133.747 569.265 135.884 569.265Z" fill="white"/>
<path d="M123.944 599.825H109.184V611.065H123.944V599.825Z" fill="white"/>
<path d="M117.264 599.825H115.854V611.065H117.264V599.825Z" fill="#845EC2"/>
<path d="M163.295 599.825H148.535V611.065H163.295V599.825Z" fill="white"/>
<path d="M156.624 599.825H155.214V611.065H156.624V599.825Z" fill="#845EC2"/>
<g opacity="0.2">
<path opacity="0.2" d="M430.5 541.15C430.63 541.12 430.5 541.15 430.5 541.15V541.15Z" fill="url(#paint0_linear)"/>
</g>
<g opacity="0.2">
<path opacity="0.2" d="M414.391 585.03H414.109C414.051 585.008 414 584.97 413.962 584.92C413.925 584.87 413.903 584.811 413.898 584.749C413.88 584.656 413.88 584.56 413.898 584.467V584.232C414.133 583.669 414.673 582.917 414.978 582.26L415.119 581.908C415.132 581.752 415.132 581.594 415.119 581.438C415.119 581.438 415.119 581.297 415.119 581.227L410.047 564.581L409.93 564.182C409.93 564.182 403.474 566.952 401.807 572.493C400.847 575.181 400.797 578.109 401.666 580.828L401.783 581.11H401.666V584.162H394.623C394.13 583.927 394.787 583.317 395.444 582.706L395.609 582.542L396.031 582.096C396.151 581.96 396.253 581.81 396.336 581.65L396.454 581.368V581.204H396.665V580.945C395.785 576.867 395.985 572.629 397.245 568.651C398.505 564.674 400.782 561.094 403.849 558.266V558.266C402.151 553.2 402.151 547.719 403.849 542.653C403.192 542.184 390.397 532.933 390.49 520.959C390.453 520.318 390.453 519.676 390.49 519.034C390.49 519.034 389.387 518.119 390.49 516.452V516.311H390.608H391.383C391.889 516.361 392.377 516.521 392.815 516.781C392.815 516.781 393.543 519.128 392.815 519.739H393.003C393.003 519.739 400.586 536.173 405.657 538.521L406.009 538.31V536.173C406.004 536.079 406.004 535.985 406.009 535.891V535.891C406.005 535.805 406.005 535.719 406.009 535.633C405.44 535.337 404.924 534.949 404.483 534.483V534.483C404.315 534.305 404.158 534.117 404.014 533.919V533.919L403.826 533.638L403.638 533.309L403.497 533.004C403.397 532.782 403.31 532.555 403.239 532.323V532.041V531.689C403.239 531.689 403.239 531.501 403.239 531.407C403.239 531.29 403.239 531.172 403.239 531.032C403.239 530.359 403.358 529.691 403.591 529.059C403.591 528.887 403.661 528.715 403.802 528.543L403.92 528.285L404.084 528.003C403.958 527.847 403.807 527.712 403.638 527.604C403.313 527.421 402.953 527.309 402.582 527.275H401.666H401.478C401.344 527.221 401.218 527.15 401.102 527.064C400.923 526.914 400.716 526.802 400.492 526.735H401.877H402.088H402.276H402.488H402.675H402.863H403.051H403.239H403.427L403.802 526.571C403.607 526.649 403.402 526.697 403.192 526.712H402.394H402.253L402.112 526.594V526.406H402.37H402.535C402.854 526.45 403.178 526.45 403.497 526.406H404.178H404.483L404.765 526.289C404.379 526.429 403.953 526.41 403.581 526.236C403.209 526.062 402.921 525.748 402.781 525.362C402.641 524.976 402.66 524.55 402.834 524.178C403.008 523.806 403.322 523.518 403.708 523.378L403.45 523.213C403.18 522.981 403.011 522.653 402.981 522.298C402.948 522.151 402.948 521.999 402.981 521.852L403.145 521.993H403.286C403.73 522.306 404.27 522.455 404.812 522.415H405C405.478 522.292 405.943 522.119 406.385 521.899L406.784 521.758H406.901H407.23H407.418H407.676H408.92C410.674 521.818 412.345 522.519 413.616 523.73C413.909 524.019 414.176 524.333 414.414 524.669C414.585 522.949 414.267 521.216 413.499 519.668H413.639H414.062L414.273 520.067C414.162 519.501 413.947 518.96 413.639 518.471H413.78C413.468 518.122 413.296 517.671 413.296 517.203C413.296 516.735 413.468 516.284 413.78 515.935C414.884 514.268 416.926 515.56 416.926 515.56C417.091 516.103 417.201 516.661 417.255 517.227L417.584 517.086C417.959 518.354 422.138 532.91 415.236 542.207C415.246 542.403 415.246 542.598 415.236 542.794V558.477L419.932 579.983L420.847 584.044L414.25 585.124L414.391 585.03ZM413.217 534.201C412.844 534.51 412.434 534.77 411.996 534.976C412.009 535.124 412.009 535.273 411.996 535.422V537.464L412.395 537.652C412.7 536.643 412.959 535.469 413.24 534.201H413.217Z" fill="url(#paint1_linear)"/>
</g>
<path d="M390.853 520.461C390.853 520.461 390.002 519.685 390.853 518.309C391.705 516.934 393.276 518.009 393.276 518.009C393.276 518.009 393.849 520.002 393.276 520.461C392.703 520.92 390.853 520.461 390.853 520.461Z" fill="#CA7070"/>
<path d="M402.698 589.417H397.286C397.306 589.631 397.27 589.847 397.18 590.049C397.091 590.251 396.95 590.434 396.768 590.586C396.046 591.284 394.513 592.133 395.257 592.472H402.698V589.417Z" fill="#00695C"/>
<path opacity="0.2" d="M397.502 590.586C397.715 590.434 397.88 590.251 397.984 590.049C398.089 589.847 398.131 589.631 398.108 589.417H397.66C397.683 589.631 397.641 589.847 397.537 590.049C397.432 590.251 397.268 590.434 397.055 590.586C396.212 591.284 394.422 592.133 395.29 592.472H395.738C394.948 592.133 396.66 591.284 397.502 590.586Z" fill="white"/>
<path d="M423.176 587.889L417.98 588.867C418.121 589.519 418.04 590.204 417.753 590.798C417.183 592.044 415.93 593.658 416.682 594L424.087 592.704L423.176 587.889Z" fill="#00695C"/>
<path d="M420.701 517.625C420.701 517.625 426.982 537.282 416.448 548.166L413.392 545.742C413.392 545.742 419.625 524.291 416.13 519.249C422.289 517.334 420.701 517.625 420.701 517.625Z" fill="#00695C"/>
<path d="M416.826 520.359C416.826 520.359 415.975 519.195 416.826 517.132C417.678 515.068 419.249 516.682 419.249 516.682C419.249 516.682 419.822 519.671 419.249 520.359C418.676 521.047 416.826 520.359 416.826 520.359Z" fill="#CA7070"/>
<path opacity="0.2" d="M418.047 590.673C418.308 590.074 418.382 589.384 418.254 588.727L422.559 587.889L417.84 588.825C417.968 589.483 417.895 590.173 417.633 590.772C417.116 592.029 415.977 593.655 416.66 594H416.95C416.495 593.409 417.55 591.881 418.047 590.673Z" fill="white"/>
<path d="M412.115 545.11H411.614C410.064 545.11 408.809 543.84 408.809 542.274V538.779C408.809 537.213 410.064 535.943 411.614 535.943H412.115C413.664 535.943 414.92 537.213 414.92 538.779V542.274C414.92 543.84 413.664 545.11 412.115 545.11Z" fill="#CA7070"/>
<path opacity="0.2" d="M413.981 547.163C413.981 547.163 420.442 525.896 416.93 520.665H416.417H416.263C419.929 525.726 413.392 547.26 413.392 547.26L416.596 549.693L416.878 549.401L413.981 547.163Z" fill="white"/>
<path d="M411.864 538.999C408.489 538.999 405.753 536.263 405.753 532.887C405.753 529.512 408.489 526.776 411.864 526.776C415.239 526.776 417.975 529.512 417.975 532.887C417.975 536.263 415.239 538.999 411.864 538.999Z" fill="#CA7070"/>
<path opacity="0.2" d="M409.551 542.228V539.44C409.531 539.236 409.531 539.03 409.551 538.825C408.419 538.187 407.509 537.156 406.963 535.89C406.416 534.624 406.262 533.195 406.525 531.824C406.789 530.452 407.454 529.215 408.419 528.302C409.384 527.39 410.595 526.853 411.864 526.776H411.543C410.246 526.774 408.985 527.254 407.965 528.138C406.945 529.021 406.223 530.258 405.917 531.648C405.61 533.038 405.736 534.502 406.275 535.804C406.814 537.106 407.734 538.17 408.887 538.825C408.867 539.03 408.867 539.236 408.887 539.44V542.228C408.887 542.992 409.162 543.725 409.652 544.266C410.142 544.806 410.807 545.11 411.5 545.11H411.821C411.189 545.018 410.61 544.674 410.191 544.143C409.773 543.612 409.545 542.931 409.551 542.228V542.228Z" fill="white"/>
<path d="M417.975 564.353C417.975 564.353 406.059 565.744 405.625 564.353C403.758 558.691 403.758 552.552 405.625 546.89C405.625 546.054 405.785 545.227 406.095 544.455C406.405 543.683 406.86 542.981 407.433 542.39C408.007 541.799 408.688 541.33 409.437 541.011C410.186 540.691 410.989 540.526 411.8 540.526V540.526C413.438 540.526 415.009 541.197 416.167 542.39C417.325 543.583 417.975 545.202 417.975 546.89V564.353Z" fill="#00695C"/>
<path d="M418.42 564.971L424.087 589.394H418.42L412.537 571.303C412.537 571.303 405.304 574.266 403.302 580.168C402.089 583.146 402.089 586.439 403.302 589.417H397.202V589.145C396.195 584.792 396.426 580.266 397.874 576.023C399.321 571.78 401.933 567.968 405.448 564.971" fill="#263238"/>
<path opacity="0.2" d="M406.314 564.333C404.524 558.67 404.524 552.53 406.314 546.867C406.316 545.25 406.892 543.695 407.922 542.518C408.953 541.34 410.363 540.628 411.864 540.526H411.491C409.92 540.526 408.414 541.197 407.303 542.39C406.192 543.584 405.568 545.203 405.568 546.89C403.778 552.553 403.778 558.693 405.568 564.356C405.721 564.851 407.279 564.993 409.232 564.969C407.542 564.922 406.314 564.757 406.314 564.333Z" fill="white"/>
<path d="M405.182 546.638C405.182 546.638 388.902 535.178 390.599 520.665H394.228C394.228 520.665 402.949 539.687 408.508 541.542C414.067 543.397 405.182 546.638 405.182 546.638Z" fill="#00695C"/>
<g opacity="0.2">
<path opacity="0.2" d="M412.301 571.319L417.912 589.796H418.734L413.005 571.014L412.301 571.319Z" fill="white"/>
<path opacity="0.2" d="M406.056 564.44H405.235C401.813 567.552 399.269 571.509 397.86 575.914C396.45 580.32 396.225 585.018 397.205 589.538V589.82H398.027V589.538C397.046 585.018 397.272 580.32 398.681 575.914C400.091 571.509 402.634 567.552 406.056 564.44Z" fill="white"/>
</g>
<path opacity="0.2" d="M391.203 520.665H390.591C388.943 535.201 405.353 546.638 405.353 546.638L405.753 546.473C403.917 545.135 389.673 534.262 391.203 520.665Z" fill="white"/>
<path d="M406.793 529.861C407.114 530.656 407.339 531.491 407.461 532.346C407.611 533.22 407.925 534.054 408.384 534.798C408.843 535.542 409.438 536.181 410.134 536.678C410.937 537.139 411.83 537.396 412.743 537.431C413.431 537.521 414.131 537.458 414.795 537.246C415.46 537.034 416.075 536.678 416.601 536.199C417.212 535.498 417.623 534.629 417.787 533.691C418.077 532.297 418.031 530.849 417.655 529.479C417.278 528.108 416.582 526.86 415.631 525.847C414.665 524.859 413.454 524.179 412.139 523.884C410.824 523.59 409.457 523.693 408.194 524.183C407.74 524.418 407.263 524.602 406.771 524.73C406.383 524.81 405.982 524.786 405.605 524.658C405.228 524.53 404.888 524.304 404.616 524.001C404.554 524.207 404.54 524.426 404.574 524.639C404.608 524.852 404.69 525.054 404.812 525.227C404.934 525.401 405.093 525.541 405.276 525.637C405.459 525.733 405.662 525.782 405.866 525.779C405.435 525.998 404.968 526.125 404.491 526.153C404.013 526.18 403.536 526.107 403.085 525.939C403.339 526.507 403.787 526.952 404.339 527.185C404.891 527.417 405.506 527.42 406.06 527.193C405.003 527.692 403.855 527.941 402.697 527.922C402.934 527.922 403.408 528.401 403.71 528.492C404.083 528.527 404.458 528.527 404.831 528.492C405.248 528.495 405.656 528.626 406.004 528.869C406.352 529.112 406.626 529.456 406.793 529.861Z" fill="#263238"/>
<g opacity="0.2">
<path opacity="0.2" d="M405.586 525.726C405.115 525.949 404.605 526.077 404.084 526.101C404.762 526.148 405.442 526.019 406.056 525.726C405.858 525.726 405.661 525.686 405.479 525.606C405.297 525.527 405.134 525.411 404.999 525.265C404.865 525.12 404.762 524.948 404.697 524.76C404.633 524.573 404.608 524.374 404.624 524.176L404.295 523.894C404.23 524.101 404.213 524.32 404.247 524.534C404.28 524.749 404.362 524.952 404.487 525.13C404.612 525.307 404.777 525.453 404.967 525.556C405.158 525.66 405.37 525.718 405.586 525.726V525.726Z" fill="white"/>
<path opacity="0.2" d="M406.854 524.622C407.389 524.49 407.909 524.301 408.404 524.059C409.152 523.761 409.946 523.595 410.751 523.566C409.781 523.532 408.813 523.7 407.911 524.059C407.416 524.301 406.896 524.49 406.361 524.622H406.15C406.383 524.658 406.621 524.658 406.854 524.622V524.622Z" fill="white"/>
<path opacity="0.2" d="M403.708 528.496C403.379 528.496 402.863 527.909 402.605 527.909C403.866 527.928 405.115 527.672 406.267 527.158C406.005 527.261 405.727 527.317 405.445 527.322C404.404 527.718 403.296 527.909 402.182 527.885C402.44 527.885 402.957 528.378 403.285 528.472C403.565 528.516 403.851 528.516 404.131 528.472L403.708 528.496Z" fill="white"/>
<path opacity="0.2" d="M413.334 537.699C412.34 537.664 411.368 537.399 410.494 536.925C409.735 536.413 409.087 535.755 408.587 534.988C408.087 534.222 407.745 533.364 407.582 532.464C407.449 531.583 407.205 530.723 406.854 529.905C406.67 529.527 406.387 529.206 406.036 528.974C405.685 528.743 405.279 528.61 404.859 528.59H404.46C404.88 528.61 405.286 528.743 405.637 528.974C405.988 529.206 406.271 529.527 406.455 529.905C406.805 530.723 407.05 531.583 407.183 532.464C407.346 533.364 407.688 534.222 408.188 534.988C408.688 535.755 409.336 536.413 410.094 536.925C410.969 537.399 411.941 537.664 412.935 537.699H413.334Z" fill="white"/>
<path opacity="0.2" d="M405.094 527.346C404.661 527.316 404.243 527.178 403.877 526.944C403.512 526.71 403.212 526.388 403.004 526.007L402.534 525.866C402.758 526.345 403.124 526.744 403.581 527.008C404.039 527.273 404.567 527.39 405.094 527.346V527.346Z" fill="white"/>
</g>
<path opacity="0.2" d="M391.471 520.471C391.471 520.471 390.18 519.696 391.471 518.323C391.641 518.123 391.876 517.954 392.156 517.831C392.437 517.709 392.755 517.636 393.084 517.619C392.685 517.587 392.282 517.636 391.922 517.761C391.561 517.885 391.259 518.081 391.049 518.323C389.758 519.696 391.049 520.471 391.049 520.471C391.864 520.598 392.696 520.663 393.531 520.665C392.838 520.64 392.149 520.575 391.471 520.471Z" fill="white"/>
<g opacity="0.2">
<path opacity="0.2" d="M466.405 550.83L470.221 570.274H469.371L465.676 551.365C465.91 551.175 466.154 550.996 466.405 550.83V550.83Z" fill="white"/>
<path opacity="0.2" d="M460.937 544.049H461.788C456.906 551.772 455.005 561.009 456.44 570.032V570.323H455.663V570.032C454.205 561.018 456.08 551.781 460.937 544.049V544.049Z" fill="white"/>
</g>
<path d="M474.08 497.678C474.08 497.678 480.772 517.309 469.55 528.177L466.295 525.757C466.295 525.757 472.934 504.334 469.211 499.299C475.773 497.387 474.08 497.678 474.08 497.678Z" fill="#FF5252"/>
<path d="M469.341 498.557C469.341 498.557 467.981 497.317 469.341 495.119C470.701 492.921 473.212 494.64 473.212 494.64C473.212 494.64 474.127 497.824 473.212 498.557C472.296 499.29 469.341 498.557 469.341 498.557Z" fill="#F6B9AD"/>
<path d="M464.054 523.295H463.654C462.416 523.295 461.413 522.111 461.413 520.651V517.394C461.413 515.934 462.416 514.75 463.654 514.75H464.054C465.292 514.75 466.295 515.934 466.295 517.394V520.651C466.295 522.111 465.292 523.295 464.054 523.295Z" fill="#F6B9AD"/>
<path d="M465.074 518.412C461.704 518.412 458.971 515.407 458.971 511.699C458.971 507.991 461.704 504.985 465.074 504.985C468.445 504.985 471.177 507.991 471.177 511.699C471.177 515.407 468.445 518.412 465.074 518.412Z" fill="#F6B9AD"/>
<path opacity="0.2" d="M462.764 520.393V517.632C462.744 517.428 462.744 517.222 462.764 517.019C461.634 516.381 460.726 515.351 460.179 514.087C459.633 512.823 459.48 511.396 459.743 510.026C460.006 508.657 460.67 507.421 461.634 506.51C462.598 505.598 463.807 505.063 465.074 504.985H464.754C463.458 504.984 462.2 505.463 461.18 506.345C460.161 507.228 459.441 508.462 459.135 509.851C458.829 511.239 458.955 512.701 459.493 514.001C460.031 515.301 460.949 516.364 462.101 517.019C462.081 517.222 462.081 517.428 462.101 517.632V520.416C462.101 521.18 462.376 521.912 462.865 522.452C463.355 522.991 464.019 523.295 464.711 523.295H465.032C464.397 523.202 463.815 522.855 463.397 522.32C462.979 521.785 462.753 521.099 462.764 520.393V520.393Z" fill="white"/>
<path d="M471.177 543.43C471.177 543.43 457.617 544.814 457.123 543.43C455.509 538.971 459.725 534.042 457.669 531.696C457.034 530.866 456.649 529.902 456.554 528.898C456.458 527.894 456.654 526.884 457.123 525.969C457.123 525.137 457.304 524.313 457.658 523.545C458.011 522.776 458.528 522.077 459.181 521.489C459.834 520.9 460.608 520.434 461.461 520.115C462.313 519.797 463.227 519.633 464.15 519.633V519.633C466.014 519.633 467.801 520.301 469.119 521.489C470.437 522.677 471.177 524.289 471.177 525.969V543.43Z" fill="#FF5252"/>
<path opacity="0.2" d="M458.786 531.71C458.209 530.88 457.859 529.914 457.772 528.909C457.685 527.903 457.863 526.893 458.289 525.977C458.289 524.294 458.962 522.681 460.159 521.491C461.356 520.301 462.98 519.633 464.673 519.633H465.074C463.456 519.734 461.938 520.444 460.827 521.618C459.716 522.792 459.096 524.342 459.093 525.953C458.667 526.869 458.489 527.88 458.576 528.885C458.663 529.891 459.012 530.856 459.59 531.686C461.575 534.036 457.627 538.876 459.093 543.434C459.235 543.857 460.512 544.022 462.19 544.045C460.11 544.045 458.431 543.928 458.266 543.434C456.823 538.9 460.772 534.059 458.786 531.71Z" fill="white"/>
<path d="M461.267 544.045C456.265 551.938 454.317 561.379 455.788 570.601V570.899H459.822C459.013 567.56 459.013 564.077 459.822 560.739C460.589 556.849 462.771 553.381 465.948 551.001L469.858 570.874H473.619L469.858 544.045H461.267Z" fill="#F6B9AD"/>
<path d="M438.1 507.427C438.1 507.427 436.478 506.73 437.173 504.29C437.868 501.85 440.673 502.681 440.673 502.681C440.673 502.681 442.397 505.362 441.728 506.247C441.059 507.132 438.1 507.427 438.1 507.427Z" fill="#F6B9AD"/>
<path d="M461.134 528.177C461.134 528.177 442.141 521.573 439.442 506.145L442.963 504.985C442.963 504.985 457.049 521.749 462.871 521.875C468.694 522.001 461.134 528.177 461.134 528.177Z" fill="#FF5252"/>
<path opacity="0.2" d="M440.027 507.427L439.442 507.615C442.135 522.013 461.085 528.177 461.085 528.177L461.413 527.918C459.187 527.119 442.533 520.86 440.027 507.427Z" fill="white"/>
<path opacity="0.2" d="M439.242 504.917C439.242 504.917 438.165 504.563 438.626 503.322C438.681 503.147 438.787 502.986 438.936 502.851C439.085 502.715 439.272 502.61 439.482 502.544C439.21 502.584 438.957 502.684 438.754 502.834C438.551 502.984 438.406 503.177 438.336 503.39C437.874 504.617 438.951 504.986 438.951 504.986C439.532 504.949 440.105 504.862 440.662 504.726C440.196 504.821 439.721 504.885 439.242 504.917V504.917Z" fill="white"/>
<path d="M471.765 544.045L479.722 560.34C475.071 560.563 470.442 561.106 465.87 561.965C457.065 563.589 452.868 559.61 452.868 559.61L458.52 544.045H471.765Z" fill="#263238"/>
<path d="M468.936 570.899C468.936 570.899 464.254 571.326 465.201 572.119H473.619L473.159 570.899H468.936Z" fill="#FF5252"/>
<path d="M456.178 570.899C456.178 570.899 452.165 571.326 452.977 572.119H460.192L459.798 570.899H456.178Z" fill="#FF5252"/>
<path d="M458.971 506.695C458.971 506.695 468.391 521.049 464.078 526.957L480.942 526.542C480.942 526.542 476.244 494.026 458.971 506.695Z" fill="#FCCC63"/>
<path opacity="0.2" d="M458.971 506.655C460.904 505.11 463.165 504.116 465.547 503.765C463.928 504.326 462.398 505.152 461.012 506.214C461.012 506.214 470.422 520.614 466.114 526.54L480.942 526.173V526.54L464.096 526.957C468.381 521.055 458.971 506.655 458.971 506.655Z" fill="white"/>
<path opacity="0.2" d="M457.458 544.045H458.727L453.015 559.474C455.378 561.342 458.354 562.341 461.413 562.293C457.899 562.625 454.391 561.612 451.648 559.474L457.458 544.045Z" fill="white"/>
<path opacity="0.2" d="M468.995 570.899H469.957C469.957 570.899 465.203 571.326 466.165 572.119H465.203C464.241 571.314 468.995 570.899 468.995 570.899Z" fill="white"/>
<path opacity="0.2" d="M455.568 570.899H456.53C456.53 570.899 451.776 571.326 452.738 572.119H451.776C450.814 571.314 455.568 570.899 455.568 570.899Z" fill="white"/>
<path d="M283.495 373.86L293.135 320.02L262.605 318.53V373.86H241.715L220.825 314.4" stroke="#B3B3B3" stroke-miterlimit="10"/>
<path d="M248.125 368.23H277.085C292.162 368.23 304.385 380.453 304.385 395.53V400.39C304.385 415.467 292.162 427.69 277.085 427.69H248.125C233.047 427.69 220.825 415.467 220.825 400.39V395.53C220.825 380.453 233.047 368.23 248.125 368.23Z" fill="#845EC2"/>
<path opacity="0.05" d="M249.745 368.23H273.845C281.722 368.254 289.27 371.394 294.841 376.964C300.411 382.534 303.551 390.082 303.575 397.96V397.96C303.575 398.64 303.575 399.3 303.495 399.96C302.965 392.45 299.613 385.418 294.114 380.277C288.614 375.135 281.373 372.264 273.845 372.24H249.745C242.216 372.264 234.975 375.135 229.476 380.277C223.976 385.418 220.625 392.45 220.095 399.96C220.095 399.3 220.015 398.63 220.015 397.96C220.038 390.082 223.178 382.534 228.749 376.964C234.319 371.394 241.867 368.254 249.745 368.23V368.23Z" fill="black"/>
<path d="M287.005 385.94L279.115 379.75L260.035 403.92L249.775 395.97L243.355 404.13L258.275 415.53L261.975 418.5L287.005 385.94Z" fill="url(#paint2_linear)"/>
<path d="M286.425 385.79L279.265 380.31L260.315 405.03L249.785 396.95L244.295 404.11L258.405 414.91L262.025 417.62L286.425 385.79Z" fill="#69F0AE"/>
<path d="M135.91 207.32C135.91 275.98 193.27 331.64 254.34 331.64C315.41 331.64 378 275.98 378 207.32C378 138.66 315.41 83 254.33 83C193.25 83 135.91 138.66 135.91 207.32Z" fill="url(#paint3_linear)"/>
<path d="M141.58 207.32C141.58 272.77 196.25 325.82 254.47 325.82C312.69 325.82 372.35 272.77 372.35 207.32C372.35 141.87 312.67 88.86 254.46 88.86C196.25 88.86 141.58 141.86 141.58 207.32Z" fill="#845EC2"/>
<path d="M246.295 329.98H272.485V339.13H246.295V329.98Z" fill="#845EC2"/>
<g opacity="0.2">
<path opacity="0.2" d="M254.395 88.41C255.785 88.41 257.165 88.41 258.555 88.51C201.925 90.96 149.825 143.02 149.825 206.91C149.825 270.8 201.925 322.86 258.515 325.31C257.125 325.37 255.735 325.41 254.355 325.41C196.145 325.41 141.465 272.36 141.465 206.91C141.465 141.46 196.185 88.41 254.395 88.41Z" fill="black"/>
</g>
<g opacity="0.2">
<path opacity="0.2" d="M365.615 207.32C365.615 142.81 307.615 90.32 250.235 88.86C251.065 88.86 251.895 88.86 252.725 88.86C310.935 88.86 370.605 141.91 370.605 207.36C370.605 272.81 310.945 325.86 252.735 325.86C251.905 325.86 251.075 325.86 250.245 325.86C307.645 324.3 365.615 271.86 365.615 207.32Z" fill="white"/>
</g>
<path d="M220.505 309.19H295.765V333.72H220.505V309.19Z" fill="#845EC2"/>
<path opacity="0.2" d="M295.765 97.45C295.765 97.45 385.155 199.63 295.765 317.19L266.245 317.09C266.245 317.09 347.735 219.97 269.985 90.09L284.515 93.4L295.765 97.45Z" fill="white"/>
<path opacity="0.2" d="M218.015 95.86C218.015 95.86 128.625 199.6 218.015 317.16L247.535 317.06C247.535 317.06 166.045 219.06 243.795 89.21L229.245 92.12L218.015 95.86Z" fill="white"/>
</g>
<defs>
<linearGradient id="paint0_linear" x1="-1648.6" y1="549.607" x2="-1648.6" y2="549.606" gradientUnits="userSpaceOnUse">
<stop stop-color="#808080" stop-opacity="0.25"/>
<stop offset="0.54" stop-color="#808080" stop-opacity="0.12"/>
<stop offset="1" stop-color="#808080" stop-opacity="0.1"/>
</linearGradient>
<linearGradient id="paint1_linear" x1="83054" y1="47042.3" x2="83054" y2="44950.1" gradientUnits="userSpaceOnUse">
<stop stop-color="#808080" stop-opacity="0.25"/>
<stop offset="0.54" stop-color="#808080" stop-opacity="0.12"/>
<stop offset="1" stop-color="#808080" stop-opacity="0.1"/>
</linearGradient>
<linearGradient id="paint2_linear" x1="265.1" y1="418.546" x2="265.188" y2="379.756" gradientUnits="userSpaceOnUse">
<stop stop-opacity="0.12"/>
<stop offset="0.55" stop-opacity="0.09"/>
<stop offset="1" stop-opacity="0.02"/>
</linearGradient>
<linearGradient id="paint3_linear" x1="-220076" y1="112662" x2="-220076" y2="50840.4" gradientUnits="userSpaceOnUse">
<stop stop-color="#808080" stop-opacity="0.25"/>
<stop offset="0.54" stop-color="#808080" stop-opacity="0.12"/>
<stop offset="1" stop-color="#808080" stop-opacity="0.1"/>
</linearGradient>
<clipPath id="clip0">
<rect width="883" height="711.86" transform="matrix(-1 0 0 1 883 0)" fill="white"/>
</clipPath>
</defs>
</svg>
