<svg width="883" height="629" viewBox="0 0 883 629" fill="none" xmlns="http://www.w3.org/2000/svg">
<path d="M827.24 56.07H646.3C640.799 56.07 636.34 60.5293 636.34 66.03V67.8C636.34 73.3008 640.799 77.76 646.3 77.76H827.24C832.741 77.76 837.2 73.3008 837.2 67.8V66.03C837.2 60.5293 832.741 56.07 827.24 56.07Z" fill="#D6D6D6"/>
<path d="M872.23 74.55H691.29C685.789 74.55 681.33 79.0092 681.33 84.51V86.28C681.33 91.7808 685.789 96.24 691.29 96.24H872.23C877.731 96.24 882.19 91.7808 882.19 86.28V84.51C882.19 79.0092 877.731 74.55 872.23 74.55Z" fill="#D6D6D6"/>
<path d="M795.9 94.62H614.96C609.459 94.62 605 99.0792 605 104.58V106.35C605 111.851 609.459 116.31 614.96 116.31H795.9C801.401 116.31 805.86 111.851 805.86 106.35V104.58C805.86 99.0792 801.401 94.62 795.9 94.62Z" fill="#D6D6D6"/>
<path d="M483.36 304.34H302.42C296.919 304.34 292.46 308.799 292.46 314.3V316.07C292.46 321.571 296.919 326.03 302.42 326.03H483.36C488.861 326.03 493.32 321.571 493.32 316.07V314.3C493.32 308.799 488.861 304.34 483.36 304.34Z" fill="#D6D6D6"/>
<path d="M528.35 322.82H347.41C341.909 322.82 337.45 327.279 337.45 332.78V334.55C337.45 340.051 341.909 344.51 347.41 344.51H528.35C533.851 344.51 538.31 340.051 538.31 334.55V332.78C538.31 327.279 533.851 322.82 528.35 322.82Z" fill="#D6D6D6"/>
<path d="M452.02 338.88H271.08C265.579 338.88 261.12 343.339 261.12 348.84V350.61C261.12 356.111 265.579 360.57 271.08 360.57H452.02C457.521 360.57 461.98 356.111 461.98 350.61V348.84C461.98 343.339 457.521 338.88 452.02 338.88Z" fill="#D6D6D6"/>
<g opacity="0.5">
<path opacity="0.5" d="M852.5 603.15C847.68 603.15 736.8 651.36 608.25 524.41C538.44 455.48 470.06 448.14 422.14 455.83C392.69 460.55 365.8 474.93 344.5 495.76C327.37 512.58 285.91 535.5 188.77 529.24C39.3299 519.6 -0.0400391 626.46 -0.0400391 626.46H882.96C882.96 626.46 857.29 603.15 852.5 603.15Z" fill="#D6D6D6"/>
</g>
<path d="M0 628.86C0 628.86 39.37 522 188.81 531.64C285.95 537.93 327.42 514.98 344.5 498.17C365.76 477.3 392.64 462.96 422.06 458.24C469.98 450.55 538.37 457.89 608.17 526.82C736.72 653.77 847.6 605.56 852.42 605.56C857.24 605.56 882.95 628.86 882.95 628.86H0Z" fill="#D6D6D6"/>
<path opacity="0.02" d="M0 628.86C0 628.86 39.37 522 188.81 531.64C285.95 537.93 327.42 514.98 344.5 498.17C365.76 477.3 392.64 462.96 422.06 458.24C469.98 450.55 538.37 457.89 608.17 526.82C736.72 653.77 847.6 605.56 852.42 605.56C857.24 605.56 882.95 628.86 882.95 628.86H0Z" fill="#D6D6D6"/>
<path d="M282.49 154.89H101.55C96.0492 154.89 91.59 159.349 91.59 164.85V166.62C91.59 172.121 96.0492 176.58 101.55 176.58H282.49C287.991 176.58 292.45 172.121 292.45 166.62V164.85C292.45 159.349 287.991 154.89 282.49 154.89Z" fill="#D6D6D6"/>
<path d="M327.49 173.37H146.55C141.049 173.37 136.59 177.829 136.59 183.33V185.1C136.59 190.601 141.049 195.06 146.55 195.06H327.49C332.991 195.06 337.45 190.601 337.45 185.1V183.33C337.45 177.829 332.991 173.37 327.49 173.37Z" fill="#D6D6D6"/>
<path d="M251.16 189.44H70.22C64.7193 189.44 60.26 193.899 60.26 199.4V201.17C60.26 206.671 64.7193 211.13 70.22 211.13H251.16C256.661 211.13 261.12 206.671 261.12 201.17V199.4C261.12 193.899 256.661 189.44 251.16 189.44Z" fill="#D6D6D6"/>
<path d="M199.26 184.62C239.196 184.62 271.57 152.246 271.57 112.31C271.57 72.3743 239.196 40 199.26 40C159.324 40 126.95 72.3743 126.95 112.31C126.95 152.246 159.324 184.62 199.26 184.62Z" fill="#FCCC63"/>
<path d="M223.88 507.63H160.98V554.36H223.88V507.63Z" fill="#845EC2"/>
<path d="M155.5 505.73L190.65 470.58C190.905 470.325 191.207 470.122 191.54 469.984C191.873 469.846 192.23 469.775 192.59 469.775C192.95 469.775 193.307 469.846 193.64 469.984C193.973 470.122 194.275 470.325 194.53 470.58L229.4 505.45C229.784 505.833 230.045 506.32 230.152 506.852C230.258 507.383 230.205 507.934 229.998 508.435C229.792 508.936 229.441 509.364 228.991 509.666C228.541 509.967 228.012 510.129 227.47 510.13L157.47 510.41C156.925 510.417 156.39 510.261 155.934 509.963C155.478 509.664 155.121 509.236 154.909 508.733C154.698 508.231 154.641 507.676 154.746 507.141C154.851 506.606 155.114 506.115 155.5 505.73V505.73Z" fill="#845EC2"/>
<path opacity="0.05" d="M155.5 505.73L190.65 470.58C190.905 470.325 191.207 470.122 191.54 469.984C191.873 469.846 192.23 469.775 192.59 469.775C192.95 469.775 193.307 469.846 193.64 469.984C193.973 470.122 194.275 470.325 194.53 470.58L229.4 505.45C229.784 505.833 230.045 506.32 230.152 506.852C230.258 507.383 230.205 507.934 229.998 508.435C229.792 508.936 229.441 509.364 228.991 509.666C228.541 509.967 228.012 510.129 227.47 510.13L157.47 510.41C156.925 510.417 156.39 510.261 155.934 509.963C155.478 509.664 155.121 509.236 154.909 508.733C154.698 508.231 154.641 507.676 154.746 507.141C154.851 506.606 155.114 506.115 155.5 505.73V505.73Z" fill="black"/>
<path d="M191.62 533.28H192.88C194.763 533.28 196.569 534.028 197.9 535.36C199.232 536.691 199.98 538.497 199.98 540.38V554.38H184.52V540.38C184.52 538.497 185.268 536.691 186.6 535.36C187.931 534.028 189.737 533.28 191.62 533.28V533.28Z" fill="white"/>
<path d="M192.6 483.04C194.737 483.04 196.47 481.307 196.47 479.17C196.47 477.033 194.737 475.3 192.6 475.3C190.463 475.3 188.73 477.033 188.73 479.17C188.73 481.307 190.463 483.04 192.6 483.04Z" fill="white"/>
<path d="M180.66 513.6H165.9V524.84H180.66V513.6Z" fill="white"/>
<path d="M173.98 513.6H172.57V524.84H173.98V513.6Z" fill="#845EC2"/>
<path d="M220.01 513.6H205.25V524.84H220.01V513.6Z" fill="white"/>
<path d="M213.34 513.6H211.93V524.84H213.34V513.6Z" fill="#845EC2"/>
<g opacity="0.2">
<path opacity="0.2" d="M452.5 458.15C452.37 458.12 452.5 458.15 452.5 458.15V458.15Z" fill="url(#paint0_linear)"/>
</g>
<g opacity="0.2">
<path opacity="0.2" d="M444.329 496.652H444.559C444.607 496.633 444.649 496.602 444.679 496.561C444.71 496.52 444.728 496.472 444.732 496.421C444.747 496.345 444.747 496.266 444.732 496.19V495.998C444.54 495.536 444.098 494.92 443.848 494.382L443.732 494.093C443.721 493.965 443.721 493.837 443.732 493.709C443.732 493.709 443.732 493.593 443.732 493.536L447.887 479.898L447.983 479.571C447.983 479.571 453.272 481.841 454.638 486.38C455.425 488.582 455.465 490.981 454.753 493.209L454.657 493.439H454.753V495.94H460.524C460.928 495.748 460.389 495.247 459.851 494.747L459.716 494.613L459.37 494.247C459.272 494.136 459.188 494.013 459.12 493.882L459.024 493.651V493.516H458.85V493.305C459.571 489.963 459.407 486.492 458.375 483.233C457.343 479.974 455.478 477.041 452.965 474.724V474.724C454.356 470.574 454.356 466.084 452.965 461.934C453.503 461.549 463.986 453.97 463.909 444.161C463.94 443.636 463.94 443.109 463.909 442.584C463.909 442.584 464.813 441.834 463.909 440.468V440.353H463.813H463.178C462.764 440.393 462.363 440.525 462.005 440.737C462.005 440.737 461.409 442.661 462.005 443.161H461.851C461.851 443.161 455.638 456.625 451.484 458.548L451.195 458.375V456.625C451.199 456.548 451.199 456.471 451.195 456.394V456.394C451.199 456.324 451.199 456.253 451.195 456.182C451.662 455.94 452.084 455.622 452.445 455.24V455.24C452.583 455.094 452.712 454.94 452.83 454.778V454.778L452.984 454.548L453.138 454.278L453.253 454.028C453.336 453.847 453.406 453.661 453.465 453.47V453.24V452.951C453.465 452.951 453.465 452.797 453.465 452.72C453.465 452.624 453.465 452.528 453.465 452.413C453.465 451.861 453.367 451.314 453.176 450.797C453.176 450.656 453.119 450.515 453.003 450.374L452.907 450.162L452.772 449.931C452.876 449.803 452.999 449.693 453.138 449.604C453.404 449.455 453.699 449.363 454.003 449.335H454.753H454.907C455.017 449.291 455.121 449.233 455.215 449.162C455.362 449.039 455.532 448.947 455.715 448.893H454.58H454.407H454.253H454.08H453.926H453.773H453.619H453.465H453.311L453.003 448.758C453.163 448.822 453.332 448.861 453.503 448.873H454.157H454.273L454.388 448.777V448.623H454.176H454.042C453.78 448.659 453.515 448.659 453.253 448.623H452.695H452.445L452.215 448.527C452.531 448.642 452.88 448.626 453.185 448.484C453.489 448.341 453.725 448.084 453.84 447.767C453.955 447.451 453.939 447.102 453.797 446.797C453.654 446.493 453.396 446.257 453.08 446.142L453.292 446.007C453.513 445.817 453.651 445.548 453.676 445.257C453.703 445.137 453.703 445.012 453.676 444.892L453.542 445.007H453.426C453.062 445.264 452.62 445.386 452.176 445.354H452.022C451.63 445.253 451.25 445.111 450.887 444.93L450.56 444.815H450.464H450.195H450.041H449.83H448.81C447.373 444.864 446.004 445.439 444.963 446.431C444.723 446.668 444.504 446.925 444.309 447.2C444.17 445.791 444.43 444.371 445.059 443.103H444.944H444.598L444.425 443.43C444.516 442.966 444.692 442.522 444.944 442.122H444.829C445.084 441.836 445.225 441.467 445.225 441.083C445.225 440.7 445.084 440.331 444.829 440.045C443.925 438.679 442.251 439.737 442.251 439.737C442.116 440.182 442.026 440.64 441.982 441.103L441.713 440.987C441.405 442.026 437.981 453.951 443.636 461.568C443.628 461.728 443.628 461.889 443.636 462.049V474.898L439.789 492.516L439.039 495.844L444.444 496.728L444.329 496.652ZM445.29 455.009C445.595 455.262 445.931 455.475 446.29 455.644C446.28 455.765 446.28 455.888 446.29 456.009V457.683L445.963 457.837C445.713 457.01 445.502 456.048 445.271 455.009H445.29Z" fill="url(#paint1_linear)"/>
</g>
<path d="M463.612 443.753C463.612 443.753 464.309 443.117 463.612 441.99C462.914 440.863 461.627 441.744 461.627 441.744C461.627 441.744 461.158 443.377 461.627 443.753C462.096 444.128 463.612 443.753 463.612 443.753Z" fill="#CA7070"/>
<path d="M453.908 500.245H458.342C458.325 500.421 458.355 500.598 458.428 500.763C458.502 500.928 458.617 501.078 458.766 501.203C459.357 501.775 460.614 502.47 460.004 502.748H453.908V500.245Z" fill="#00695C"/>
<path opacity="0.2" d="M458.165 501.203C457.99 501.078 457.856 500.928 457.77 500.763C457.684 500.598 457.65 500.421 457.669 500.245H458.035C458.016 500.421 458.051 500.598 458.137 500.763C458.222 500.928 458.357 501.078 458.532 501.203C459.222 501.775 460.689 502.47 459.977 502.748H459.61C460.257 502.47 458.855 501.775 458.165 501.203Z" fill="white"/>
<path d="M437.132 498.993L441.388 499.794C441.272 500.329 441.339 500.89 441.574 501.376C442.041 502.398 443.068 503.72 442.452 504L436.385 502.939L437.132 498.993Z" fill="#00695C"/>
<path d="M439.159 441.429C439.159 441.429 434.013 457.534 442.644 466.45L445.147 464.464C445.147 464.464 440.04 446.89 442.904 442.76C437.858 441.191 439.159 441.429 439.159 441.429Z" fill="#00695C"/>
<path d="M442.333 443.669C442.333 443.669 443.031 442.715 442.333 441.025C441.636 439.334 440.349 440.656 440.349 440.656C440.349 440.656 439.879 443.106 440.349 443.669C440.818 444.233 442.333 443.669 442.333 443.669Z" fill="#CA7070"/>
<path opacity="0.2" d="M441.333 501.275C441.119 500.784 441.059 500.218 441.164 499.68L437.637 498.993L441.503 499.76C441.398 500.299 441.458 500.865 441.672 501.355C442.096 502.385 443.029 503.717 442.469 504H442.232C442.605 503.515 441.74 502.264 441.333 501.275Z" fill="white"/>
<path d="M446.193 463.946H446.604C447.873 463.946 448.902 462.906 448.902 461.623V458.76C448.902 457.477 447.873 456.436 446.604 456.436H446.193C444.924 456.436 443.895 457.477 443.895 458.76V461.623C443.895 462.906 444.924 463.946 446.193 463.946Z" fill="#CA7070"/>
<path opacity="0.2" d="M444.664 465.628C444.664 465.628 439.371 448.205 442.249 443.919H442.669H442.795C439.791 448.066 445.147 465.708 445.147 465.708L442.522 467.701L442.291 467.462L444.664 465.628Z" fill="white"/>
<path d="M446.399 458.94C449.164 458.94 451.405 456.698 451.405 453.933C451.405 451.168 449.164 448.926 446.399 448.926C443.633 448.926 441.392 451.168 441.392 453.933C441.392 456.698 443.633 458.94 446.399 458.94Z" fill="#CA7070"/>
<path opacity="0.2" d="M448.294 461.585V459.301C448.31 459.134 448.31 458.965 448.294 458.798C449.221 458.275 449.966 457.43 450.414 456.393C450.862 455.356 450.988 454.185 450.772 453.062C450.557 451.938 450.011 450.924 449.221 450.177C448.43 449.429 447.438 448.99 446.398 448.926H446.662C447.724 448.925 448.757 449.318 449.593 450.042C450.429 450.766 451.02 451.778 451.271 452.918C451.522 454.057 451.419 455.256 450.977 456.322C450.536 457.389 449.782 458.261 448.838 458.798C448.854 458.965 448.854 459.134 448.838 459.301V461.585C448.838 462.211 448.612 462.812 448.211 463.255C447.809 463.698 447.265 463.946 446.697 463.946H446.434C446.951 463.871 447.426 463.589 447.769 463.154C448.112 462.719 448.298 462.161 448.294 461.585V461.585Z" fill="white"/>
<path d="M441.392 479.712C441.392 479.712 451.154 480.851 451.51 479.712C453.039 475.073 453.039 470.043 451.51 465.404C451.51 464.72 451.379 464.042 451.125 463.409C450.871 462.777 450.498 462.202 450.028 461.718C449.559 461.234 449.001 460.85 448.387 460.588C447.773 460.326 447.115 460.191 446.451 460.191V460.191C445.109 460.191 443.822 460.74 442.874 461.718C441.925 462.696 441.392 464.022 441.392 465.404V479.712Z" fill="#00695C"/>
<path d="M441.027 480.218L436.385 500.226H441.027L445.847 485.405C445.847 485.405 451.773 487.832 453.413 492.668C454.407 495.107 454.407 497.805 453.413 500.245H458.411V500.023C459.236 496.456 459.046 492.748 457.86 489.272C456.674 485.796 454.534 482.673 451.655 480.218" fill="#263238"/>
<path opacity="0.2" d="M450.946 479.695C452.412 475.055 452.412 470.025 450.946 465.386C450.944 464.061 450.472 462.787 449.628 461.823C448.783 460.858 447.629 460.275 446.398 460.191H446.704C447.991 460.191 449.225 460.741 450.135 461.718C451.045 462.696 451.557 464.022 451.557 465.405C453.023 470.045 453.023 475.075 451.557 479.714C451.431 480.12 450.155 480.235 448.555 480.216C449.939 480.177 450.946 480.042 450.946 479.695Z" fill="white"/>
<path d="M451.873 465.198C451.873 465.198 465.211 455.809 463.82 443.919H460.848C460.848 443.919 453.702 459.503 449.148 461.023C444.594 462.543 451.873 465.198 451.873 465.198Z" fill="#00695C"/>
<g opacity="0.2">
<path opacity="0.2" d="M446.041 485.419L441.444 500.556H440.771L445.464 485.169L446.041 485.419Z" fill="white"/>
<path opacity="0.2" d="M451.157 479.783H451.83C454.634 482.332 456.717 485.574 457.872 489.183C459.027 492.792 459.212 496.641 458.408 500.345V500.575H457.735V500.345C458.538 496.641 458.353 492.792 457.199 489.183C456.044 485.574 453.96 482.332 451.157 479.783Z" fill="white"/>
</g>
<path opacity="0.2" d="M463.325 443.919H463.827C465.177 455.829 451.733 465.198 451.733 465.198L451.405 465.063C452.91 463.967 464.579 455.059 463.325 443.919Z" fill="white"/>
<path d="M450.553 451.453C450.29 452.105 450.106 452.789 450.006 453.489C449.883 454.206 449.626 454.889 449.25 455.498C448.874 456.108 448.386 456.632 447.816 457.039C447.158 457.416 446.427 457.627 445.679 457.655C445.114 457.729 444.542 457.678 443.997 457.504C443.453 457.33 442.949 457.038 442.517 456.646C442.017 456.072 441.68 455.36 441.546 454.592C441.309 453.45 441.346 452.263 441.654 451.14C441.963 450.018 442.533 448.995 443.312 448.165C444.104 447.356 445.096 446.798 446.173 446.557C447.251 446.316 448.371 446.401 449.405 446.802C449.777 446.995 450.168 447.145 450.571 447.25C450.889 447.316 451.218 447.296 451.526 447.191C451.835 447.087 452.114 446.901 452.337 446.652C452.387 446.821 452.399 447.001 452.371 447.175C452.343 447.35 452.276 447.515 452.176 447.657C452.076 447.8 451.946 447.915 451.796 447.993C451.646 448.072 451.48 448.112 451.313 448.109C451.665 448.289 452.048 448.393 452.439 448.416C452.83 448.438 453.222 448.378 453.591 448.24C453.383 448.706 453.015 449.07 452.563 449.261C452.111 449.452 451.607 449.454 451.154 449.268C452.02 449.677 452.96 449.881 453.909 449.865C453.714 449.865 453.326 450.258 453.079 450.332C452.773 450.36 452.466 450.36 452.16 450.332C451.819 450.335 451.485 450.442 451.2 450.641C450.914 450.84 450.69 451.122 450.553 451.453Z" fill="#263238"/>
<g opacity="0.2">
<path opacity="0.2" d="M451.542 448.066C451.927 448.249 452.346 448.354 452.773 448.373C452.217 448.412 451.66 448.306 451.157 448.066C451.319 448.066 451.48 448.033 451.629 447.968C451.778 447.903 451.912 447.808 452.023 447.689C452.133 447.569 452.217 447.428 452.27 447.275C452.323 447.121 452.344 446.958 452.33 446.796L452.6 446.565C452.653 446.735 452.667 446.914 452.639 447.09C452.612 447.265 452.544 447.432 452.442 447.577C452.34 447.722 452.205 447.842 452.049 447.927C451.893 448.011 451.719 448.059 451.542 448.066V448.066Z" fill="white"/>
<path opacity="0.2" d="M450.503 447.162C450.065 447.053 449.639 446.898 449.233 446.7C448.62 446.456 447.97 446.32 447.31 446.296C448.105 446.269 448.898 446.406 449.637 446.7C450.043 446.898 450.469 447.053 450.907 447.162H451.08C450.889 447.191 450.694 447.191 450.503 447.162V447.162Z" fill="white"/>
<path opacity="0.2" d="M453.08 450.335C453.35 450.335 453.773 449.854 453.984 449.854C452.951 449.87 451.927 449.66 450.984 449.239C451.198 449.324 451.427 449.369 451.657 449.373C452.51 449.698 453.418 449.855 454.331 449.835C454.119 449.835 453.696 450.239 453.427 450.316C453.197 450.352 452.964 450.352 452.734 450.316L453.08 450.335Z" fill="white"/>
<path opacity="0.2" d="M445.194 457.875C446.009 457.846 446.805 457.629 447.521 457.24C448.143 456.821 448.674 456.282 449.083 455.654C449.493 455.027 449.773 454.323 449.906 453.586C450.015 452.865 450.216 452.16 450.503 451.489C450.654 451.18 450.885 450.917 451.173 450.727C451.46 450.538 451.794 450.429 452.138 450.412H452.465C452.121 450.429 451.787 450.538 451.5 450.727C451.212 450.917 450.981 451.18 450.83 451.489C450.543 452.16 450.342 452.865 450.233 453.586C450.1 454.323 449.82 455.027 449.41 455.654C449.001 456.282 448.47 456.821 447.848 457.24C447.132 457.629 446.335 457.846 445.521 457.875H445.194Z" fill="white"/>
<path opacity="0.2" d="M451.945 449.393C452.3 449.368 452.642 449.255 452.942 449.064C453.241 448.872 453.487 448.608 453.657 448.296L454.042 448.181C453.858 448.573 453.559 448.9 453.184 449.116C452.809 449.333 452.377 449.43 451.945 449.393V449.393Z" fill="white"/>
</g>
<path opacity="0.2" d="M463.106 443.761C463.106 443.761 464.164 443.126 463.106 442.001C462.967 441.837 462.774 441.699 462.544 441.598C462.314 441.498 462.054 441.438 461.785 441.424C462.111 441.398 462.441 441.438 462.737 441.54C463.032 441.643 463.28 441.802 463.452 442.001C464.509 443.126 463.452 443.761 463.452 443.761C462.784 443.865 462.102 443.918 461.418 443.92C461.986 443.899 462.551 443.846 463.106 443.761Z" fill="white"/>
<path d="M474.622 420.013C474.622 420.013 469.14 436.096 478.334 445L481 443.017C481 443.017 475.561 425.467 478.611 421.342C473.235 419.775 474.622 420.013 474.622 420.013Z" fill="#FF5252"/>
<path d="M478.505 420.733C478.505 420.733 479.619 419.717 478.505 417.917C477.39 416.116 475.333 417.524 475.333 417.524C475.333 417.524 474.583 420.133 475.333 420.733C476.083 421.333 478.505 420.733 478.505 420.733Z" fill="#F6B9AD"/>
<path d="M482.836 441H483.164C484.178 441 485 440.03 485 438.834V436.166C485 434.97 484.178 434 483.164 434H482.836C481.822 434 481 434.97 481 436.166V438.834C481 440.03 481.822 441 482.836 441Z" fill="#F6B9AD"/>
<path opacity="0.2" d="M478.72 462.32C478.72 462.32 476.2 453.58 477.57 451.43H477.77H477.83C476.4 453.51 478.95 462.36 478.95 462.36L477.7 463.36L477.59 463.24L478.72 462.32Z" fill="white"/>
<path d="M482 437C484.761 437 487 434.538 487 431.5C487 428.462 484.761 426 482 426C479.239 426 477 428.462 477 431.5C477 434.538 479.239 437 482 437Z" fill="#F6B9AD"/>
<path opacity="0.2" d="M483.893 438.622V436.361C483.909 436.194 483.909 436.025 483.893 435.858C484.819 435.336 485.563 434.492 486.01 433.457C486.458 432.421 486.584 431.252 486.368 430.13C486.153 429.008 485.608 427.995 484.818 427.249C484.029 426.502 483.038 426.063 482 426H482.263C483.324 425.999 484.355 426.391 485.19 427.114C486.025 427.837 486.615 428.848 486.866 429.986C487.117 431.124 487.014 432.321 486.573 433.386C486.132 434.451 485.379 435.322 484.436 435.858C484.452 436.025 484.452 436.194 484.436 436.361V438.642C484.436 439.267 484.211 439.867 483.81 440.309C483.409 440.751 482.865 441 482.298 441H482.035C482.555 440.924 483.032 440.64 483.375 440.202C483.717 439.763 483.902 439.201 483.893 438.622V438.622Z" fill="white"/>
<path d="M477 457.496C477 457.496 488.109 458.63 488.514 457.496C489.836 453.843 486.382 449.805 488.066 447.883C488.587 447.203 488.902 446.413 488.981 445.59C489.059 444.768 488.898 443.941 488.514 443.191C488.514 442.509 488.365 441.835 488.076 441.205C487.787 440.575 487.363 440.003 486.828 439.521C486.293 439.038 485.659 438.656 484.96 438.395C484.262 438.134 483.513 438 482.757 438V438C481.23 438 479.766 438.547 478.686 439.521C477.607 440.494 477 441.814 477 443.191V457.496Z" fill="#FF5252"/>
<path opacity="0.2" d="M487.152 447.894C487.625 447.214 487.911 446.423 487.982 445.599C488.054 444.776 487.908 443.948 487.559 443.197C487.559 441.819 487.008 440.497 486.027 439.522C485.046 438.547 483.716 438 482.329 438H482C483.326 438.083 484.57 438.665 485.48 439.626C486.39 440.588 486.898 441.858 486.9 443.178C487.249 443.929 487.395 444.756 487.324 445.58C487.252 446.404 486.966 447.195 486.494 447.875C484.867 449.8 488.101 453.765 486.9 457.5C486.784 457.846 485.738 457.981 484.363 458C486.067 458 487.443 457.904 487.578 457.5C488.76 453.784 485.525 449.819 487.152 447.894Z" fill="white"/>
<path d="M485.12 458C489.217 464.466 490.813 472.201 489.608 479.756V480H486.303C486.966 477.265 486.966 474.411 486.303 471.676C485.675 468.49 483.887 465.648 481.284 463.698L478.081 479.98H475L478.081 458H485.12Z" fill="#F6B9AD"/>
<path d="M504.099 428C504.099 428 505.427 427.429 504.858 425.43C504.289 423.431 501.991 424.112 501.991 424.112C501.991 424.112 500.578 426.309 501.126 427.033C501.675 427.758 504.099 428 504.099 428Z" fill="#F6B9AD"/>
<path d="M485.228 445C485.228 445 500.788 439.589 503 426.95L500.115 426C500.115 426 488.575 439.734 483.805 439.837C479.035 439.94 485.228 445 485.228 445Z" fill="#FF5252"/>
<path opacity="0.2" d="M502.52 428L503 428.154C500.793 439.95 485.269 445 485.269 445L485 444.788C486.823 444.133 500.467 439.006 502.52 428Z" fill="white"/>
<g opacity="0.2">
<path opacity="0.2" d="M480.909 463.559L477.783 479.489H478.48L481.507 463.997C481.315 463.841 481.116 463.695 480.909 463.559V463.559Z" fill="white"/>
<path opacity="0.2" d="M485.39 458.003H484.693C488.692 464.33 490.25 471.897 489.073 479.289V479.528H489.711V479.289C490.904 471.905 489.368 464.338 485.39 458.003V458.003Z" fill="white"/>
</g>
<path opacity="0.2" d="M503.163 425.944C503.163 425.944 504.046 425.654 503.668 424.637C503.623 424.494 503.536 424.362 503.414 424.251C503.292 424.14 503.139 424.054 502.967 424C503.19 424.032 503.397 424.115 503.563 424.237C503.729 424.36 503.848 424.518 503.906 424.693C504.284 425.698 503.401 426 503.401 426C502.926 425.97 502.456 425.899 502 425.788C502.382 425.865 502.771 425.917 503.163 425.944V425.944Z" fill="white"/>
<path d="M476.518 458L470 471.35C473.81 471.532 477.602 471.977 481.348 472.681C488.562 474.012 492 470.752 492 470.752L487.369 458H476.518Z" fill="#263238"/>
<path d="M478.836 480C478.836 480 482.672 480.35 481.896 481H475L475.377 480H478.836Z" fill="#FF5252"/>
<path d="M489.288 480C489.288 480 492.576 480.35 491.911 481H486L486.323 480H489.288Z" fill="#FF5252"/>
<path d="M487 427.401C487 427.401 479.283 439.16 482.816 444L469 443.66C469 443.66 472.849 417.021 487 427.401Z" fill="#FCCC63"/>
<path opacity="0.2" d="M487 427.367C485.417 426.102 483.564 425.288 481.613 425C482.939 425.459 484.192 426.136 485.328 427.006C485.328 427.006 477.619 438.804 481.149 443.659L469 443.358V443.659L482.802 444C479.291 439.165 487 427.367 487 427.367Z" fill="white"/>
<path opacity="0.2" d="M488.24 458H487.2L491.88 470.64C489.944 472.171 487.505 472.989 485 472.949C487.878 473.221 490.753 472.392 493 470.64L488.24 458Z" fill="white"/>
<path opacity="0.2" d="M478.788 480H478C478 480 481.895 480.35 481.107 481H481.895C482.683 480.34 478.788 480 478.788 480Z" fill="white"/>
<path opacity="0.2" d="M489.788 480H489C489 480 492.895 480.35 492.107 481H492.895C493.683 480.34 489.788 480 489.788 480Z" fill="white"/>
<path d="M599.44 290.86L589.8 237.02L620.33 235.53V290.86H641.22L662.11 231.4" stroke="#B3B3B3" stroke-miterlimit="10"/>
<path d="M634.81 285.23H605.85C590.772 285.23 578.55 297.453 578.55 312.53V317.39C578.55 332.467 590.772 344.69 605.85 344.69H634.81C649.887 344.69 662.11 332.467 662.11 317.39V312.53C662.11 297.453 649.887 285.23 634.81 285.23Z" fill="#845EC2"/>
<path opacity="0.05" d="M633.19 285.23H609.09C601.212 285.254 593.664 288.394 588.094 293.964C582.523 299.534 579.384 307.082 579.36 314.96V314.96C579.36 315.64 579.36 316.3 579.44 316.96C579.97 309.45 583.321 302.418 588.821 297.277C594.32 292.135 601.561 289.264 609.09 289.24H633.19C640.719 289.264 647.959 292.135 653.459 297.277C658.958 302.418 662.31 309.45 662.84 316.96C662.84 316.3 662.92 315.63 662.92 314.96C662.896 307.082 659.756 299.534 654.186 293.964C648.616 288.394 641.067 285.254 633.19 285.23V285.23Z" fill="black"/>
<path d="M639.58 302.94L631.69 296.75L612.61 320.92L602.35 312.97L595.93 321.13L610.85 332.53L614.55 335.5L639.58 302.94Z" fill="url(#paint2_linear)"/>
<path d="M639 302.79L631.84 297.31L612.89 322.03L602.36 313.95L596.87 321.11L610.98 331.91L614.6 334.62L639 302.79Z" fill="#69F0AE"/>
<path d="M747.09 124.32C747.09 192.98 689.73 248.64 628.66 248.64C567.59 248.64 505 192.98 505 124.32C505 55.66 567.59 0 628.67 0C689.75 0 747.09 55.66 747.09 124.32Z" fill="url(#paint3_linear)"/>
<path d="M741.42 124.32C741.42 189.77 686.75 242.82 628.53 242.82C570.31 242.82 510.65 189.77 510.65 124.32C510.65 58.87 570.33 5.85999 628.54 5.85999C686.75 5.85999 741.42 58.86 741.42 124.32Z" fill="#845EC2"/>
<path d="M636.64 246.98H610.45V256.13H636.64V246.98Z" fill="#845EC2"/>
<g opacity="0.2">
<path opacity="0.2" d="M628.54 5.41C627.15 5.41 625.77 5.40999 624.38 5.50999C681.01 7.95999 733.11 60.02 733.11 123.91C733.11 187.8 681.01 239.86 624.42 242.31C625.81 242.37 627.2 242.41 628.58 242.41C686.79 242.41 741.47 189.36 741.47 123.91C741.47 58.46 686.75 5.41 628.54 5.41Z" fill="black"/>
</g>
<g opacity="0.2">
<path opacity="0.2" d="M517.32 124.32C517.32 59.81 575.32 7.31999 632.7 5.85999C631.87 5.85999 631.04 5.85999 630.21 5.85999C572 5.85999 512.33 58.91 512.33 124.36C512.33 189.81 571.99 242.86 630.2 242.86C631.03 242.86 631.86 242.86 632.69 242.86C575.29 241.3 517.32 188.86 517.32 124.32Z" fill="white"/>
</g>
<path d="M662.43 226.19H587.17V250.72H662.43V226.19Z" fill="#845EC2"/>
<path opacity="0.2" d="M587.17 14.45C587.17 14.45 497.78 116.63 587.17 234.19L616.69 234.09C616.69 234.09 535.2 136.97 612.95 7.09L598.42 10.4L587.17 14.45Z" fill="white"/>
<path opacity="0.2" d="M664.92 12.86C664.92 12.86 754.31 116.6 664.92 234.16L635.4 234.06C635.4 234.06 716.89 136.06 639.14 6.20999L653.69 9.11998L664.92 12.86Z" fill="white"/>
<defs>
<linearGradient id="paint0_linear" x1="2531.6" y1="466.607" x2="2531.6" y2="466.606" gradientUnits="userSpaceOnUse">
<stop stop-color="#808080" stop-opacity="0.25"/>
<stop offset="0.54" stop-color="#808080" stop-opacity="0.12"/>
<stop offset="1" stop-color="#808080" stop-opacity="0.1"/>
</linearGradient>
<linearGradient id="paint1_linear" x1="-67258.8" y1="38557.1" x2="-67258.8" y2="36843.1" gradientUnits="userSpaceOnUse">
<stop stop-color="#808080" stop-opacity="0.25"/>
<stop offset="0.54" stop-color="#808080" stop-opacity="0.12"/>
<stop offset="1" stop-color="#808080" stop-opacity="0.1"/>
</linearGradient>
<linearGradient id="paint2_linear" x1="617.675" y1="335.546" x2="617.763" y2="296.756" gradientUnits="userSpaceOnUse">
<stop stop-opacity="0.12"/>
<stop offset="0.55" stop-opacity="0.09"/>
<stop offset="1" stop-opacity="0.02"/>
</linearGradient>
<linearGradient id="paint3_linear" x1="220959" y1="112579" x2="220959" y2="50757.4" gradientUnits="userSpaceOnUse">
<stop stop-color="#808080" stop-opacity="0.25"/>
<stop offset="0.54" stop-color="#808080" stop-opacity="0.12"/>
<stop offset="1" stop-color="#808080" stop-opacity="0.1"/>
</linearGradient>
</defs>
</svg>
